KRSPY-parametric-WideThinMaxGrade.ufo
<glyph name="one" format="2">
  <advance width="3955.929677425173"/>
  <unicode hex="0031"/>
  <outline>
    <contour>
      <point x="88.60776091406723" y="0.0" type="line"/>
      <point x="3855.245100956813" y="0.0" type="line" identifier="CURJAw79Zl"/>
      <point x="3855.245100956813" y="95.4559664769875" type="line" identifier="0DUCJo8xIi"/>
      <point x="2023.0831732633535" y="95.4559664769875" type="line" identifier="5nmxQXofSG"/>
      <point x="2023.0831732633535" y="1600.0" type="line" identifier="4rjIeWbSbx"/>
      <point x="85.60726492258023" y="1600.0" type="line"/>
      <point x="85.60726492258023" y="1504.5440335230126" type="line"/>
      <point x="1920.7696886075264" y="1504.5440335230126" type="line"/>
      <point x="1920.7696886075264" y="95.4559664769875" type="line"/>
      <point x="88.60776091406723" y="95.4559664769875" type="line"/>
    </contour>
  </outline>
</glyph>
<glyph name="two" format="2">
  <advance width="4039"/>
  <unicode hex="0032"/>
  <outline>
    <contour>
      <point x="100" y="0" type="line"/>
      <point x="3940" y="0" type="line" identifier="pzdvPTirLJ"/>
      <point x="3940" y="86" type="line" identifier="91SxUS0iwG"/>
      <point x="3856" y="86" type="line" identifier="fP7EN0pUcl"/>
      <point x="3856" y="88" type="line" identifier="eb458Bdvng"/>
      <point x="258" y="88" type="line"/>
      <point x="258" y="451" type="line" identifier="9fjc25rkUx"/>
      <point x="3936" y="1023" type="line" identifier="yyb1NCCI5w"/>
      <point x="3936" y="1600" type="line" identifier="5FogYRSgkk"/>
      <point x="103" y="1600" type="line" identifier="svlFvrau4c"/>
      <point x="103" y="1502" type="line" identifier="LQ9fBsTy9K"/>
      <point x="186" y="1502" type="line" identifier="jS6EyIAKtm"/>
      <point x="186" y="1513" type="line"/>
      <point x="3777" y="1513" type="line" identifier="N6CMAjhNlU"/>
      <point x="3777" y="1072" type="line" identifier="yK1d5IcluK"/>
      <point x="100" y="495" type="line" identifier="teVKnpBcVb"/>
    </contour>
  </outline>
</glyph>
<glyph name="three" format="2">
  <advance width="4039"/>
  <unicode hex="0033"/>
  <outline>
    <contour>
      <point x="100" y="0" type="line" identifier="O9abUc1nmN"/>
      <point x="3940" y="0" type="line" identifier="kMJYMTfXCq"/>
      <point x="3940" y="816" type="line" identifier="su2XmdS8e8"/>
      <point x="2745" y="816" type="line" identifier="JQaOzDQqlF"/>
      <point x="2745" y="800" type="line"/>
      <point x="3931" y="1122" type="line" identifier="S91TzLL02W"/>
      <point x="3931" y="1600" type="line" identifier="xg8x2Ki40p"/>
      <point x="104" y="1600" type="line" identifier="pE1XSRiy68"/>
      <point x="104" y="1511" type="line" identifier="5lNstGRcSF"/>
      <point x="187" y="1511" type="line" identifier="AcE5xKDZfE"/>
      <point x="187" y="1512" type="line" identifier="7ogBYufWpl"/>
      <point x="3811" y="1512" type="line" identifier="RHLvSX2Jv6"/>
      <point x="3811" y="1127" type="line" identifier="YUjTrmoWd9"/>
      <point x="2667" y="827" type="line"/>
      <point x="2667" y="826" type="line" identifier="iic1IBkDqp"/>
      <point x="914" y="826" type="line" identifier="lRLJEhXMlO"/>
      <point x="914" y="773" type="line" identifier="8aKgEELrVU"/>
      <point x="3840" y="773" type="line" identifier="Dm8zjmbhNr"/>
      <point x="3840" y="88" type="line" identifier="xv9CFHiFgB"/>
      <point x="182" y="88" type="line" identifier="YajKQV3MHP"/>
      <point x="182" y="88" type="line" identifier="36SchVkwze"/>
      <point x="100" y="88" type="line" identifier="tVui9PiOjA"/>
    </contour>
  </outline>
</glyph>
<glyph name="four" format="2">
  <advance width="4054.587181776371"/>
  <unicode hex="0034"/>
  <outline>
    <contour>
      <point x="3424.571688805923" y="0.0" type="line"/>
      <point x="3526.8851734617497" y="0.0" type="line"/>
      <point x="3526.8851734617497" y="745.5800966131296" type="line"/>
      <point x="3952.9333116900684" y="745.5800966131296" type="line"/>
      <point x="3952.9333116900684" y="834.0083506930354" type="line"/>
      <point x="3526.8851734617497" y="834.0083506930354" type="line"/>
      <point x="3526.8851734617497" y="1600.0" type="line"/>
      <point x="3424.571688805923" y="1600.0" type="line"/>
      <point x="3424.571688805923" y="834.0083506930354" type="line"/>
      <point x="203.77401425449477" y="834.0083506930354" type="line"/>
      <point x="203.77401425449477" y="1113.953987020053" type="line"/>
      <point x="703.7288249210171" y="1680.0" type="line"/>
      <point x="600.4347741134528" y="1680.0" type="line"/>
      <point x="101.70554338121906" y="1113.9489820150482" type="line"/>
      <point x="101.70554338121906" y="745.5800966131296" type="line"/>
      <point x="3424.571688805923" y="745.5800966131296" type="line"/>
    </contour>
  </outline>
</glyph>
<glyph name="seven" format="2">
  <advance width="4038.708293879465"/>
  <unicode hex="0037"/>
  <outline>
    <contour>
      <point x="1916.068263458654" y="0.0" type="line"/>
      <point x="2057.9694018342666" y="0.0" type="line" identifier="PiPrv7Kcoy"/>
      <point x="3938.034304574845" y="1250.2562352141933" type="line" identifier="PkvwNC9Tx1"/>
      <point x="3938.034304574845" y="1600.0" type="line" identifier="tgqM27bPOm"/>
      <point x="100.65297730162595" y="1600.0" type="line" identifier="36ml4xRICt"/>
      <point x="100.65297730162595" y="1447.716785854924" type="line" identifier="aaDZsh5Mah"/>
      <point x="182.34944854764674" y="1447.716785854924" type="line"/>
      <point x="182.34944854764674" y="1504.5440335230126" type="line"/>
      <point x="3796.4259875491102" y="1504.5440335230126" type="line"/>
      <point x="3796.4259875491102" y="1251.2231510790068" type="line"/>
    </contour>
  </outline>
</glyph>
<glyph name="eight" format="2">
  <advance width="4052.8278729179633"/>
  <unicode hex="0038"/>
  <outline>
    <contour>
      <point x="3469.5506196887577" y="769.5853000147295" type="line"/>
      <point x="3848.940772604436" y="501.9018207396586" type="line"/>
      <point x="3848.940772604436" y="85.79286193100006" type="line"/>
      <point x="203.88710031352673" y="85.79286193100006" type="line"/>
      <point x="203.88710031352673" y="499.2664285907529" type="line"/>
      <point x="584.4186588991394" y="769.4388893397903" type="line"/>
    </contour>
    <contour>
      <point x="3572.517911304698" y="799.0" type="line"/>
      <point x="3572.517911304698" y="801.0" type="line"/>
      <point x="3949.00374248122" y="1059.8557205854506" type="line"/>
      <point x="3949.00374248122" y="1600.0" type="line"/>
      <point x="104.72052232412592" y="1600.0" type="line"/>
      <point x="104.72052232412592" y="1059.8557205854506" type="line"/>
      <point x="480.4100376652929" y="801.0" type="line"/>
      <point x="480.4100376652929" y="799.0" type="line"/>
      <point x="101.72002633263895" y="527.4004995986978" type="line"/>
      <point x="101.72002633263895" y="0.0" type="line"/>
      <point x="3952.0042384727067" y="0.0" type="line"/>
      <point x="3952.0042384727067" y="527.4004995986978" type="line"/>
    </contour>
    <contour>
      <point x="584.4186588991394" y="833.3429134840546" type="line"/>
      <point x="207.03400697995295" y="1089.7467196926655" type="line"/>
      <point x="206.88759630501374" y="1517.135351567784" type="line"/>
      <point x="3845.9402766129488" y="1517.135351567784" type="line"/>
      <point x="3845.7938659380097" y="1089.7467196926655" type="line"/>
      <point x="3469.4042090138187" y="833.4893241589938" type="line"/>
    </contour>
  </outline>
</glyph>
<glyph name="B" format="2">
  <advance width="4301.377049722395"/>
  <unicode hex="0042"/>
  <outline>
    <contour>
      <point x="259.38215693170645" y="0.0" type="line" identifier="hvY9r8RmLr"/>
      <point x="4099.41035329624" y="0.0" type="line" identifier="9QFpw7nfq7"/>
      <point x="4099.41035329624" y="530.1292193093996" type="line" identifier="543PerILpr"/>
      <point x="3731.137071004939" y="799.0986031076121" type="line" identifier="zhomauHW30"/>
      <point x="3731.137071004939" y="801.0986031076121" type="line" identifier="870ZhtaozS"/>
      <point x="4009.032564095627" y="1062.9298487676865" type="line" identifier="eGKH52Jgnk"/>
      <point x="4009.032564095627" y="1600.0" type="line" identifier="FaP204GrdB"/>
      <point x="259.38215693170645" y="1600.0" type="line" identifier="JEev70GAj6"/>
    </contour>
    <contour>
      <point x="361.5492309125943" y="835.7002137272408" type="line" identifier="By7dfMihfe"/>
      <point x="361.5492309125943" y="1520.647734821909" type="line" identifier="1p5hKrurVy"/>
      <point x="3906.7190794398" y="1520.647734821909" type="line" identifier="Qby8aMtF2X"/>
      <point x="3906.7190794398" y="1088.0026873720567" type="line" identifier="9lW01gQyU2"/>
      <point x="3651.449076704332" y="835.7002137272408" type="line" identifier="xpxyvIzPoc"/>
    </contour>
    <contour>
      <point x="361.5492309125943" y="79.35079223367511" type="line" identifier="jaMSiLrCua"/>
      <point x="361.5492309125943" y="764.2997862727592" type="line" identifier="XSrxNd2axx"/>
      <point x="3628.1219718216717" y="764.2997862727592" type="line" identifier="VyYlzRh5nq"/>
      <point x="3997.0968686404126" y="496.27422016611206" type="line" identifier="lsRGatjQja"/>
      <point x="3997.0968686404126" y="79.35079223367511" type="line" identifier="xhlDJ3CjD5"/>
    </contour>
  </outline>
</glyph>
<glyph name="J" format="2">
  <advance width="3852.4813732651573"/>
  <unicode hex="004A"/>
  <outline>
    <contour>
      <point x="280.7420754087421" y="0.0" type="line" identifier="jiO9eX9U07"/>
      <point x="3593.0992163334504" y="0.0" type="line" identifier="wgpFs1yguc"/>
      <point x="3593.0992163334504" y="1600.0" type="line" identifier="d5Di3vNzni"/>
      <point x="124.18978437897356" y="1600.0" type="line" identifier="TbrXnCyMEi"/>
      <point x="124.18978437897356" y="1495.7593930266603" type="line" identifier="AdYfGKx8QJ"/>
      <point x="3490.6871285700113" y="1495.7593930266603" type="line" identifier="46RrD1WET2"/>
      <point x="3490.6871285700113" y="104.24060697333971" type="line" identifier="zFXsE8BUYG"/>
      <point x="353.1708435161889" y="104.24060697333971" type="line" identifier="NQmE31PUns"/>
      <point x="190.0118647175704" y="525.7665533401268" type="line" identifier="qiXxY6YhCq"/>
      <point x="88.44909774639504" y="525.7665533401268" type="line" identifier="7exNZv1XSc"/>
    </contour>
  </outline>
</glyph>
<glyph name="M" format="2">
  <advance width="4127"/>
  <unicode hex="004D"/>
  <outline>
    <contour>
      <point x="2043" y="80" type="line" identifier="0Dn4Xpf57M"/>
      <point x="227" y="1489" type="line"/>
      <point x="201" y="1489" type="line"/>
      <point x="201" y="0" type="line"/>
      <point x="101" y="0" type="line"/>
      <point x="101" y="1600" type="line"/>
      <point x="237" y="1600" type="line"/>
      <point x="2052" y="190" type="line"/>
      <point x="2075" y="190" type="line" identifier="9aKZPM0HPh"/>
      <point x="3890" y="1600" type="line"/>
      <point x="4026" y="1600" type="line"/>
      <point x="4026" y="0" type="line"/>
      <point x="3926" y="0" type="line"/>
      <point x="3926" y="1489" type="line"/>
      <point x="3901" y="1489" type="line"/>
      <point x="2084" y="80" type="line" identifier="spdoeeCFft"/>
    </contour>
  </outline>
</glyph>
<glyph name="N" format="2">
  <advance width="4257.103283463644"/>
  <unicode hex="004E"/>
  <outline>
    <contour>
      <point x="259.38215693170645" y="0.0" type="line" identifier="CkwYPPvJLv"/>
      <point x="361.5492309125943" y="0.0" type="line" identifier="oHTJsN7drZ"/>
      <point x="361.5492309125943" y="1495.63419275131" type="line" identifier="wfBbYd10Pm"/>
      <point x="375.78872866860854" y="1495.63419275131" type="line" identifier="MEnBDHq6zU"/>
      <point x="3886.407196986777" y="0.17663308954600154" type="line" identifier="3Nbopwznvn"/>
      <point x="3887.8997646294947" y="0.0" type="line"/>
      <point x="3997.7211265319374" y="0.0" type="line" identifier="uKfuudIUvA"/>
      <point x="3997.7211265319374" y="1600.0" type="line" identifier="XRdLFXiM4t"/>
      <point x="3895.554052551049" y="1600.0" type="line" identifier="MUSJPjCIXg"/>
      <point x="3895.554052551049" y="104.73284094905715" type="line" identifier="VILP20cFmq"/>
      <point x="3887.307211115019" y="104.54287620954285" type="line" identifier="z5b04GDwRN"/>
      <point x="375.8071855639423" y="1600.0" type="line" identifier="LL64NQ6WBE"/>
      <point x="259.38215693170645" y="1600.0" type="line" identifier="dzUaaP1sjt"/>
    </contour>
  </outline>
</glyph>
<glyph name="O" format="2">
  <advance width="4042"/>
  <unicode hex="004F"/>
  <outline>
    <contour>
      <point x="3968" y="499" type="line" identifier="ob8US3C311"/>
      <point x="3968" y="1600" type="line" identifier="c9brEFyXXA"/>
      <point x="565" y="1600" type="line" identifier="a4Ql951bxG"/>
      <point x="69" y="1094" type="line" identifier="kbL68Qh2zr"/>
      <point x="69" y="0" type="line" identifier="U6WibAQAUl"/>
      <point x="3472" y="0" type="line" identifier="dfgNHTgBfR"/>
    </contour>
    <contour>
      <point x="3867" y="550" type="line" identifier="SnrsQD5TLy"/>
      <point x="3415" y="101" type="line" identifier="jjd5iRDXWT"/>
      <point x="169" y="101" type="line" identifier="YbQKHpAtYn"/>
      <point x="169" y="1043" type="line" identifier="vdfGLkskOQ"/>
      <point x="621" y="1499" type="line" identifier="qXlVxK5ShE"/>
      <point x="3867" y="1499" type="line" identifier="g70r2r6DwY"/>
    </contour>
  </outline>
</glyph>
<glyph name="Q" format="2">
  <advance width="4335.489402315228"/>
  <unicode hex="0051"/>
  <outline>
    <contour>
      <point x="4076.107245383522" y="1600.2928213498783" type="line" identifier="c9brEFyXXA"/>
      <point x="670.5617779942104" y="1600.2928213498783" type="line" identifier="a4Ql951bxG"/>
      <point x="175.7269251233215" y="1225.5500756011265" type="line" identifier="kbL68Qh2zr"/>
      <point x="175.7269251233215" y="0.2928213498784069" type="line" identifier="U6WibAQAUl"/>
      <point x="4076.107245383522" y="0.2928213498784069" type="line" identifier="dfgNHTgBfR"/>
    </contour>
    <contour>
      <point x="3973.9401714026335" y="95.74878782686591" type="line" identifier="jjd5iRDXWT"/>
      <point x="277.8939991042093" y="95.74878782686591" type="line" identifier="YbQKHpAtYn"/>
      <point x="277.8939991042093" y="1160.5487409331254" type="line" identifier="vdfGLkskOQ"/>
      <point x="736.2509175842509" y="1504.8368548728909" type="line" identifier="qXlVxK5ShE"/>
      <point x="3973.9401714026335" y="1504.8368548728909" type="line" identifier="g70r2r6DwY"/>
    </contour>
    <contour>
      <point x="2086.493373253133" y="-250.09097986875764" type="line"/>
      <point x="2178.9176804432054" y="-250.09097986875764" type="line"/>
      <point x="2178.9176804432054" y="1.9990080170260351" type="line"/>
      <point x="2086.493373253133" y="1.9990080170260351" type="line"/>
    </contour>
  </outline>
</glyph>
<glyph name="R" format="2">
  <advance width="4361.526466406346"/>
  <unicode hex="0052"/>
  <outline>
    <contour>
      <point x="361.8420522624727" y="814.8583448313177" type="line"/>
      <point x="361.5492309125943" y="1504.5440335230126" type="line"/>
      <point x="4054.0948696444193" y="1504.5440335230126" type="line"/>
      <point x="4054.2412803193583" y="1077.835405976547" type="line"/>
      <point x="3688.918994069144" y="814.8583448313177" type="line"/>
    </contour>
    <contour>
      <point x="4159.413359305251" y="0.0" type="line"/>
      <point x="4159.55976998019" y="507.5088241394548" type="line"/>
      <point x="3792.182879576273" y="776.5255195135076" type="line"/>
      <point x="3792.182879576273" y="778.5255195135076" type="line"/>
      <point x="4156.554764975185" y="1040.4558642726813" type="line"/>
      <point x="4156.408354300246" y="1600.0" type="line"/>
      <point x="259.38215693170645" y="1600.0" type="line"/>
      <point x="259.38215693170645" y="0.0" type="line"/>
      <point x="361.6956415875335" y="0.0" type="line"/>
      <point x="361.6956415875335" y="734.6290885480075" type="line"/>
      <point x="3689.0654047440835" y="734.6290885480075" type="line"/>
      <point x="4057.0998746494242" y="463.6867167467769" type="line"/>
      <point x="4057.0998746494242" y="0.0" type="line"/>
    </contour>
  </outline>
</glyph>
<glyph name="S" format="2">
  <advance width="4000"/>
  <unicode hex="0053"/>
  <outline>
    <contour>
      <point x="70" y="0" type="line" identifier="09VlJ0BjUX"/>
      <point x="3932" y="0" type="line" identifier="EagWihqFM8"/>
      <point x="3932" y="846" type="line" identifier="KfNuQA7eZe"/>
      <point x="192" y="846" type="line" identifier="At364YZFEy"/>
      <point x="192" y="1513" type="line" identifier="BcuLfvaQKC"/>
      <point x="3849" y="1513" type="line" identifier="3ZUkG35meB"/>
      <point x="3849" y="1527" type="line" identifier="DTOJhFIl15"/>
      <point x="3930" y="1527" type="line" identifier="9KDcrfQ5Ui"/>
      <point x="3930" y="1600" type="line" identifier="SaF9ojRFrW"/>
      <point x="92" y="1600" type="line" identifier="F4sQEYelA8"/>
      <point x="92" y="789" type="line" identifier="3sQ8t8BZ6b"/>
      <point x="3832" y="789" type="line" identifier="yiV6OCBLHg"/>
      <point x="3832" y="88" type="line" identifier="9kdl9SYsn8"/>
      <point x="153" y="88" type="line" identifier="yZDWuX8LLe"/>
      <point x="153" y="73" type="line" identifier="jYb9001DTm"/>
      <point x="70" y="73" type="line" identifier="ho4DrS0rdW"/>
    </contour>
  </outline>
</glyph>
<glyph name="U" format="2">
  <advance width="4299.730180631082"/>
  <unicode hex="0055"/>
  <outline>
    <contour>
      <point x="3937.935935935936" y="1600.0" type="line" smooth="yes"/>
      <point x="3937.935935935936" y="95.4559664769875" type="line"/>
      <point x="777.0013737461186" y="95.4559664769875" type="line" smooth="yes"/>
      <point x="304.13377040704364" y="555.9645411176944" type="line" smooth="yes"/>
      <point x="304.13377040704364" y="1600.0" type="line"/>
      <point x="201.96669642615586" y="1600.0" type="line" smooth="yes"/>
      <point x="201.96669642615586" y="497.23593262932604" type="line" smooth="yes"/>
      <point x="707.6994291588886" y="0.0" type="line" smooth="yes"/>
      <point x="4040.348023699375" y="0.0" type="line" smooth="yes"/>
      <point x="4040.348023699375" y="1600.0" type="line" smooth="yes"/>
    </contour>
  </outline>
</glyph>
<glyph name="V" format="2">
  <advance width="4299.730180631082"/>
  <unicode hex="0056"/>
  <outline>
    <contour>
      <point x="361.5492309125943" y="1600.0" type="line" smooth="yes"/>
      <point x="361.5492309125943" y="95.4559664769875" type="line"/>
      <point x="3514.1032443855265" y="95.4559664769875" type="line" smooth="yes"/>
      <point x="3995.3513964414865" y="567.922408895382" type="line" smooth="yes"/>
      <point x="3995.3513964414865" y="1600.0" type="line"/>
      <point x="4097.763484204926" y="1600.0" type="line" smooth="yes"/>
      <point x="4097.763484204926" y="497.23593262932604" type="line" smooth="yes"/>
      <point x="3592.021282543805" y="0.0" type="line" smooth="yes"/>
      <point x="259.38215693170645" y="0.0" type="line" smooth="yes"/>
      <point x="259.38215693170645" y="1600.0" type="line" smooth="yes"/>
    </contour>
  </outline>
</glyph>
<glyph name="X" format="2">
  <advance width="4254.21760499238"/>
  <unicode hex="0058"/>
  <outline>
    <contour>
      <point x="3569.650879107336" y="751.393552711871" type="line"/>
      <point x="3949.937423910397" y="473.62246631015404" type="line"/>
      <point x="3949.937423910397" y="0.0" type="line"/>
      <point x="4052.2509085662236" y="0.0" type="line"/>
      <point x="4052.2509085662236" y="522.1297153008866" type="line"/>
      <point x="3672.1602743885023" y="799.0" type="line"/>
      <point x="3672.1602743885023" y="801.0" type="line"/>
      <point x="4049.2459035612187" y="1062.9303447591737" type="line"/>
      <point x="4049.2459035612187" y="1600.0" type="line"/>
      <point x="3946.9331553776" y="1600.0" type="line"/>
      <point x="3946.9331553776" y="1111.437593749906" type="line"/>
      <point x="3569.650879107336" y="848.606447288129" type="line"/>
      <point x="684.6653289926562" y="848.606447288129" type="line"/>
      <point x="307.28444961477993" y="1111.437593749906" type="line"/>
      <point x="307.28444961477993" y="1600.0" type="line"/>
      <point x="204.97170143116088" y="1600.0" type="line"/>
      <point x="204.97170143116088" y="1062.9303447591737" type="line"/>
      <point x="581.5523631739849" y="801.0" type="line"/>
      <point x="581.5523631739849" y="799.0" type="line"/>
      <point x="201.96669642615586" y="522.1297153008866" type="line"/>
      <point x="201.96669642615586" y="0.0" type="line"/>
      <point x="304.28018108198285" y="0.0" type="line"/>
      <point x="304.28018108198285" y="473.62246631015404" type="line"/>
      <point x="684.6653289926562" y="751.393552711871" type="line"/>
    </contour>
  </outline>
</glyph>
<glyph name="Y" format="2">
  <advance width="4014.2750137524913"/>
  <unicode hex="0059"/>
  <outline>
    <contour>
      <point x="1956.927690453216" y="-1.4999624248873498" type="line" identifier="XKjckKJ7m9"/>
      <point x="2059.2404386368353" y="0.0" type="line" identifier="WihjL321cU"/>
      <point x="2059.2404386368353" y="663.4392320248176" type="line" identifier="rvzWMWl6O1"/>
      <point x="3925.8259160060966" y="910.6469682896109" type="line" identifier="YbKEFhFR3q"/>
      <point x="3925.8259160060966" y="1623.9993987981977" type="line" identifier="wnC8PudY2b"/>
      <point x="3823.5124313502693" y="1623.9993987981977" type="line" identifier="spI4xe8t4f"/>
      <point x="3823.5124313502693" y="988.5036688339991" type="line" identifier="Jw55i2s2Mm"/>
      <point x="2025.501113726339" y="748.5493992490989" type="line" identifier="9ncbEH2hEb"/>
      <point x="1990.667015363712" y="748.5493992490989" type="line" identifier="u7HFbTQwMo"/>
      <point x="190.7618459300141" y="988.5036688339991" type="line" identifier="oy8ifCCtGL"/>
      <point x="190.7618459300141" y="1623.9993987981977" type="line" identifier="ah5yat5gKV"/>
      <point x="88.44909774639504" y="1623.9993987981977" type="line" identifier="fJXhpKV79E"/>
      <point x="88.44909774639504" y="910.6469682896109" type="line" identifier="k3vH9oxqcN"/>
      <point x="1956.927690453216" y="663.4392320248176" type="line" identifier="3Kveia3O9h"/>
    </contour>
  </outline>
</glyph>
<glyph name="Z" format="2">
  <advance width="4017.1804837870905"/>
  <unicode hex="005A"/>
  <outline>
    <contour>
      <point x="88.44909774639504" y="0.0" type="line"/>
      <point x="3928.721811901992" y="0.0" type="line" identifier="pzdvPTirLJ"/>
      <point x="3928.721811901992" y="386.5415144874604" type="line" identifier="91SxUS0iwG"/>
      <point x="3846.1289487685885" y="386.5415144874604" type="line"/>
      <point x="3846.1289487685885" y="95.4559664769875" type="line"/>
      <point x="259.6383470557644" y="95.4559664769875" type="line"/>
      <point x="259.6383470557644" y="457.05728250773296" type="line"/>
      <point x="3922.8424490556627" y="1310.4879955030108" type="line" identifier="yyb1NCCI5w"/>
      <point x="3922.8424490556627" y="1600.0" type="line" identifier="5FogYRSgkk"/>
      <point x="91.44959373788203" y="1600.0" type="line" identifier="svlFvrau4c"/>
      <point x="91.44959373788203" y="1216.7769391012632" type="line" identifier="LQ9fBsTy9K"/>
      <point x="174.0964207450694" y="1216.7769391012632" type="line"/>
      <point x="174.0964207450694" y="1504.5440335230126" type="line"/>
      <point x="3746.6722909095283" y="1504.5440335230126" type="line"/>
      <point x="3746.6722909095283" y="1322.3668713758805" type="line"/>
      <point x="88.44909774639504" y="472.11972933894856" type="line" identifier="teVKnpBcVb"/>
    </contour>
  </outline>
</glyph>
<glyph name="C.wide" format="2">
  <advance width="3914"/>
  <outline>
    <contour>
      <point x="99" y="0" type="line" identifier="7lPhzTnk2Z"/>
      <point x="3791" y="0" type="line" identifier="qJVLZGnkwh"/>
      <point x="3791" y="94" type="line" identifier="Y750RHTvDj"/>
      <point x="198" y="94" type="line" identifier="L2LsGnXiZ2"/>
      <point x="199" y="1050" type="line" identifier="sUWsr03vF4"/>
      <point x="668" y="1506" type="line" identifier="dbOUe6OhxL"/>
      <point x="3790" y="1506" type="line" identifier="5BjRbcud80"/>
      <point x="3790" y="1600" type="line" identifier="9eJelv8BOw"/>
      <point x="607" y="1600" type="line" identifier="lfZev3ICaC"/>
      <point x="99" y="1101" type="line" identifier="V1EWIdPahq"/>
    </contour>
  </outline>
</glyph>
<glyph name="E.wide" format="2">
  <advance width="3950"/>
  <outline>
    <contour>
      <point x="100" y="0" type="line" identifier="fZynkQ4XHB"/>
      <point x="3863" y="0" type="line" identifier="FAQNpgUPxV"/>
      <point x="3863" y="85" type="line" identifier="5cgTYOhATF"/>
      <point x="200" y="85" type="line" identifier="bWs42DaCgU"/>
      <point x="200" y="770" type="line" identifier="VtD2aADJmn"/>
      <point x="3763" y="770" type="line" identifier="PpbsFdHAnS"/>
      <point x="3763" y="830" type="line" identifier="8WuC5p8Ax5"/>
      <point x="200" y="830" type="line" identifier="m39IWn9ntA"/>
      <point x="200" y="1515" type="line" identifier="gQ21I4SHQg"/>
      <point x="3862" y="1515" type="line" identifier="eqNb2VTwYs"/>
      <point x="3862" y="1600" type="line" identifier="qYRmo14Il5"/>
      <point x="100" y="1600" type="line" identifier="HmJIcnLWfC"/>
    </contour>
  </outline>
</glyph>
<glyph name="F.wide" format="2">
  <advance width="3949"/>
  <outline>
    <contour>
      <point x="99" y="0" type="line" identifier="oAgH2tA6DJ"/>
      <point x="199" y="0" type="line" identifier="zCZyMcW5ho"/>
      <point x="199" y="728" type="line" identifier="yHYqkMd7LI"/>
      <point x="3621" y="728" type="line" identifier="NmB7yyQuio"/>
      <point x="3621" y="808" type="line" identifier="wQk2C8zPHh"/>
      <point x="199" y="808" type="line" identifier="4cFHKQfHDt"/>
      <point x="199" y="1507" type="line" identifier="ZvzwyrcwpS"/>
      <point x="3862" y="1507" type="line" identifier="4E754ovOIe"/>
      <point x="3862" y="1600" type="line" identifier="NUrIjqOB7J"/>
      <point x="99" y="1600" type="line" identifier="TBAYuCfUFX"/>
    </contour>
  </outline>
</glyph>
<glyph name="G.wide" format="2">
  <advance width="4141.007388770152"/>
  <outline>
    <contour>
      <point x="201.96669642615586" y="0.0" type="line" identifier="7lPhzTnk2Z"/>
      <point x="4040.347031716401" y="0.0" type="line" identifier="qJVLZGnkwh"/>
      <point x="4040.347031716401" y="826.9979559138719" type="line" identifier="uek1NNj7De"/>
      <point x="2653.625715805896" y="826.9979559138719" type="line" identifier="qcvimxjndX"/>
      <point x="2653.625715805896" y="770.9927434942451" type="line" identifier="EARaY3Su65"/>
      <point x="3937.9389118848576" y="770.9927434942451" type="line" identifier="4m6dHLVhZq"/>
      <point x="3937.9389118848576" y="88.13543273002732" type="line" identifier="Y750RHTvDj"/>
      <point x="304.13377040704364" y="88.13543273002732" type="line" identifier="L2LsGnXiZ2"/>
      <point x="304.13377040704364" y="1063.752094436779" type="line" identifier="sUWsr03vF4"/>
      <point x="764.1144838532225" y="1510.4004605205807" type="line" identifier="dbOUe6OhxL"/>
      <point x="4039.348023699375" y="1510.4004605205807" type="line" identifier="5BjRbcud80"/>
      <point x="4039.348023699375" y="1600.0" type="line" identifier="9eJelv8BOw"/>
      <point x="707.6696696696697" y="1600.0" type="line" identifier="lfZev3ICaC"/>
      <point x="201.96669642615586" y="1105.7570032494957" type="line" identifier="V1EWIdPahq"/>
    </contour>
  </outline>
</glyph>
<glyph name="N.wide" format="2">
  <advance width="3967"/>
  <outline>
    <contour>
      <point x="102" y="0" type="line" identifier="CkwYPPvJLv"/>
      <point x="202" y="0" type="line" identifier="oHTJsN7drZ"/>
      <point x="202" y="1497" type="line" identifier="wfBbYd10Pm"/>
      <point x="217" y="1497" type="line" identifier="MEnBDHq6zU"/>
      <point x="3758" y="0" type="line" identifier="3Nbopwznvn"/>
      <point x="3866" y="0" type="line" identifier="uKfuudIUvA"/>
      <point x="3866" y="1600" type="line" identifier="XRdLFXiM4t"/>
      <point x="3766" y="1600" type="line" identifier="MUSJPjCIXg"/>
      <point x="3766" y="104" type="line" identifier="VILP20cFmq"/>
      <point x="3758" y="104" type="line" identifier="z5b04GDwRN"/>
      <point x="217" y="1600" type="line" identifier="LL64NQ6WBE"/>
      <point x="102" y="1600" type="line" identifier="dzUaaP1sjt"/>
    </contour>
  </outline>
</glyph>
<glyph name="R.alt" format="2">
  <advance width="4041"/>
  <outline>
    <contour>
      <point x="168" y="815" type="line"/>
      <point x="168" y="1507" type="line"/>
      <point x="3869" y="1507" type="line"/>
      <point x="3869" y="815" type="line"/>
    </contour>
    <contour>
      <point x="3972" y="0" type="line"/>
      <point x="3577" y="763" type="line"/>
      <point x="3976" y="764" type="line"/>
      <point x="3969" y="1600" type="line"/>
      <point x="68" y="1600" type="line"/>
      <point x="68" y="0" type="line"/>
      <point x="168" y="0" type="line"/>
      <point x="168" y="736" type="line"/>
      <point x="3492" y="736" type="line"/>
      <point x="3873" y="0" type="line"/>
    </contour>
  </outline>
</glyph>
<glyph name="S.alt" format="2">
  <advance width="3789"/>
  <outline>
    <contour>
      <point x="24" y="0" type="line" identifier="09VlJ0BjUX"/>
      <point x="3758" y="0" type="line" identifier="EagWihqFM8"/>
      <point x="3758" y="830" type="line" identifier="KfNuQA7eZe"/>
      <point x="121" y="830" type="line" identifier="At364YZFEy"/>
      <point x="121" y="1174" type="line"/>
      <point x="344" y="1517" type="line"/>
      <point x="3658" y="1517" type="line" identifier="3ZUkG35meB"/>
      <point x="3658" y="1315" type="line" identifier="DTOJhFIl15"/>
      <point x="3758" y="1315" type="line" identifier="9KDcrfQ5Ui"/>
      <point x="3758" y="1600" type="line" identifier="SaF9ojRFrW"/>
      <point x="304" y="1600" type="line"/>
      <point x="22" y="1175" type="line"/>
      <point x="22" y="770" type="line" identifier="3sQ8t8BZ6b"/>
      <point x="3658" y="770" type="line" identifier="yiV6OCBLHg"/>
      <point x="3658" y="83" type="line" identifier="9kdl9SYsn8"/>
      <point x="123" y="83" type="line" identifier="yZDWuX8LLe"/>
      <point x="123" y="283" type="line" identifier="jYb9001DTm"/>
      <point x="24" y="283" type="line" identifier="ho4DrS0rdW"/>
    </contour>
  </outline>
</glyph>
<glyph name="S.wide" format="2">
  <advance width="3789"/>
  <outline>
    <contour>
      <point x="24" y="0" type="line" identifier="09VlJ0BjUX"/>
      <point x="3758" y="0" type="line" identifier="EagWihqFM8"/>
      <point x="3758" y="830" type="line" identifier="KfNuQA7eZe"/>
      <point x="121" y="830" type="line" identifier="At364YZFEy"/>
      <point x="121" y="1158" type="line"/>
      <point x="423" y="1517" type="line"/>
      <point x="3758" y="1517" type="line" identifier="3ZUkG35meB"/>
      <point x="3758" y="1600" type="line" identifier="SaF9ojRFrW"/>
      <point x="382" y="1600" type="line"/>
      <point x="22" y="1155" type="line"/>
      <point x="22" y="770" type="line" identifier="3sQ8t8BZ6b"/>
      <point x="3658" y="770" type="line" identifier="yiV6OCBLHg"/>
      <point x="3658" y="83" type="line" identifier="9kdl9SYsn8"/>
      <point x="24" y="83" type="line" identifier="yZDWuX8LLe"/>
    </contour>
  </outline>
</glyph>
<glyph name="Z.wide" format="2">
  <advance width="4040"/>
  <outline>
    <contour>
      <point x="100" y="0" type="line"/>
      <point x="3940" y="0" type="line" identifier="pzdvPTirLJ"/>
      <point x="3940" y="93" type="line"/>
      <point x="210" y="93" type="line"/>
      <point x="210" y="459" type="line"/>
      <point x="3935" y="1289" type="line" identifier="yyb1NCCI5w"/>
      <point x="3935" y="1600" type="line" identifier="5FogYRSgkk"/>
      <point x="87" y="1600" type="line" identifier="svlFvrau4c"/>
      <point x="87" y="1507" type="line"/>
      <point x="3814" y="1507" type="line"/>
      <point x="3814" y="1325" type="line"/>
      <point x="100" y="497" type="line" identifier="teVKnpBcVb"/>
    </contour>
  </outline>
</glyph>
